<svg xmlns="http://www.w3.org/2000/svg" viewBox="0 0 202.39 63.92"><defs><style>.cls-1{fill:none;}.cls-2{fill:#a4035a;}.cls-3{fill:#504f53;}.cls-4{fill:#97bf02;}.cls-5{fill:#00a5ea;}.cls-6{fill:#fff;}</style></defs><title>BTS_logo</title><g id="Layer_2" data-name="Layer 2"><g id="Layer_5" data-name="Layer 5"><path class="cls-1" d="M23.39,37.9c-3.69,6-6,11.24-6.76,15.28l.39.15c.78-4.12,3.22-9.46,7-15.54Z"/><path class="cls-1" d="M45.75,48.27l.41-.31c-4.31-4.19-8.56-8-12.62-11.27l-.73.06C37,40.11,41.33,44,45.75,48.27Z"/><path class="cls-1" d="M20.11,34.57l.29-.58c-6.13,1.45-11,3.28-14.12,5.4l.16.39C9.55,37.75,14.23,36,20.11,34.57Z"/><path class="cls-1" d="M30,56.92A73.9,73.9,0,0,0,41.3,51.28c-1.86-2-3.82-4-5.88-6-2.41-2.35-4.82-4.55-7.17-6.56C23.94,44.74,21,50.19,19.72,54.3A64.61,64.61,0,0,0,30,56.92Z"/><path class="cls-1" d="M11.34,50a52.74,52.74,0,0,1-4.6-7.11L6.49,43A52.71,52.71,0,0,0,11,50l.89,1.13.55.26C12.1,51,11.73,50.48,11.34,50Z"/><path class="cls-1" d="M7.62,42.39a64.62,64.62,0,0,0,5.25,9.21l1.43.64c.2-3.51,1.48-8.09,3.76-13.31A45.8,45.8,0,0,0,7.62,42.39Z"/><path class="cls-1" d="M5.34,40.08l-.24.19.17.36.24-.18Z"/><path class="cls-1" d="M32.44,57.22l.61,0A54.37,54.37,0,0,0,41.93,52l-.19-.2A54.36,54.36,0,0,1,32.44,57.22Z"/><path class="cls-1" d="M27.46,32.64l0-.06-.11,0Z"/><path class="cls-1" d="M46.07,48.59l.38-.34-.19-.18-.38.34Z"/><path class="cls-2" d="M22.71,28.78l.42.27q2.05,1.33,4.22,2.89l.41.29.34.25.57.42q1.23.91,2.49,1.89t2.39,1.9C37.6,40,41.85,43.77,46.16,48l.11.1.19.18.13.13c3.56,3.48,7.16,7.24,10.74,11.23q1.77,2,3.46,4L59,45.9l-3,2.66A122.23,122.23,0,0,0,42.26,36.25l-1.56-1.18q-2.24-1.66-4.43-3.16l-.65-.44-1.17-.77q-1.94-1.27-3.82-2.4L30.19,28l-1.5-.87q-1.69-1-3.32-1.8c-10.93-5.63-19.54-7.05-22-3.17l-.41.61c3.7-2.12,10.88.25,19.79,6"/><path class="cls-2" d="M2.8,25.12a3.68,3.68,0,0,0-.68.23,5.23,5.23,0,0,0-.43,3.6,42.48,42.48,0,0,0,2.7,9q.44-.45,1-.89C3.61,32.48,2.54,28.08,2.8,25.12Z"/><path class="cls-2" d="M5.34,40.08l.17.36q.44-.33.94-.66l-.16-.39Q5.78,39.73,5.34,40.08Z"/><path class="cls-2" d="M6.74,42.86A52.74,52.74,0,0,0,11.34,50c.39.5.76,1,1.14,1.44l.4.18a64.62,64.62,0,0,1-5.25-9.21Z"/><path class="cls-3" d="M39.36,25.12A149.86,149.86,0,0,1,50.1,14.57l3.16,3.29L56.37.37h0Q54.44,2.13,52.52,4A216,216,0,0,0,32.08,26.41q2.6-.54,5.35-1Z"/><path class="cls-3" d="M28.66,32.9l-.57-.42-.59.1,0,.06L28,33Z"/><path class="cls-3" d="M33,57.27l-.52.24-.16.08a42.42,42.42,0,0,1-8.84,3,5.23,5.23,0,0,1-3.61-.3,2.88,2.88,0,0,0,.84,1l.33.22c3.31,1.87,12.69-2,21.21-9.14L41.93,52a54.37,54.37,0,0,1-8.87,5.29Z"/><path class="cls-3" d="M56.94,59.95c-3.57-4-7.16-7.73-10.71-11.21l-.15-.15-.19-.18-.13-.13C41.33,44,37,40.11,32.81,36.75l.73-.06q-1.2-1-2.39-1.9T28.66,32.9L28,33l-.5-.37-.06,0-.34-.25q-2.14-1.55-4.18-2.87L22.09,29C13.28,23.36,6.2,21,2.54,23.15L.69,25.88c2.09-2.83,8.55-.82,16.84,4.64q1.68,1.1,3.44,2.39l1,.73.52.39q-1.22.26-2.38.54C14.23,36,9.55,37.75,6.45,39.78q-.5.33-.94.66l-.24.18L4.83,41l.44-.36-.17-.36q-.46.38-.86.77l.18.32a6.89,6.89,0,0,0-2.08,3.24L3,47.82c-.25-1.51.73-3,2.7-4.32a60.3,60.3,0,0,0,5.53,7.33l.66.32L11,50a52.71,52.71,0,0,1-4.54-7l.25-.15.88-.48a45.8,45.8,0,0,1,10.44-3.46c1.67-.38,3.45-.72,5.33-1l.65-.1c-3.79,6.08-6.23,11.42-7,15.54q-.11.58-.18,1.13l0,.3-.38-.13q0,.6,0,1.15l.35.09a6.89,6.89,0,0,0,.88,3.75l2.8,1.75c-1.26-.87-1.63-2.59-1.23-4.95a60.3,60.3,0,0,0,9.12,1.11l.69-.25-1.43-.15a52.71,52.71,0,0,1-8.2-1.6l.07-.28q.12-.47.27-1c1.25-4.11,4.22-9.56,8.54-15.62,2.35,2,4.75,4.2,7.17,6.56,2.06,2,4,4,5.88,6l.44.48.19.2.35.39q2.18,2.42,4.15,4.8l-3.4,3,17.38,3.72v0Q58.72,61.93,56.94,59.95Z"/><path class="cls-3" d="M4.17,38.18A42.7,42.7,0,0,1,1.39,29a5.23,5.23,0,0,1,.43-3.6,2.88,2.88,0,0,0-1,.8l-.23.32c-1.32,2.16-.19,7.1,2.74,12.75A10.74,10.74,0,0,1,4.17,38.18Z"/><path class="cls-3" d="M14.3,53.93v-.07l-.09,0L14,53.76a42.41,42.41,0,0,1-8.28-4.28,5.23,5.23,0,0,1-2.29-2.81A2.88,2.88,0,0,0,3.32,48l.07.39c.64,2.45,5,5.07,11.07,6.89A10.52,10.52,0,0,1,14.31,54Z"/><path class="cls-3" d="M40.71,35.07l1.56,1.18a149.85,149.85,0,0,1,15,.4l-.17,4.56,14.75-9.91h0q-2.6-.15-5.25-.25a216,216,0,0,0-30.34.89Q38.47,33.4,40.71,35.07Z"/><path class="cls-4" d="M27.05,32.35l.34.25.11,0,.59-.1-.34-.25-.41-.29Q25.18,30.38,23.13,29l-.42-.27-.62.19.79.51Q24.91,30.8,27.05,32.35Z"/><path class="cls-4" d="M5.1,40.27l.24-.19q.44-.35.95-.68c3.15-2.12,8-3.95,14.12-5.4L22,33.64l-1-.73q-1.77-1.29-3.44-2.39c-5.33,2-9.53,4.25-12.18,6.54q-.52.44-1,.89l-.22.23a10.74,10.74,0,0,0-.89,1.08,5,5,0,0,0-1.07,4.1l.15.72a6.69,6.69,0,0,1,1.88-3Q4.64,40.65,5.1,40.27Z"/><path class="cls-4" d="M57.94,19.78l-.15,4a122.23,122.23,0,0,0-18.42,1.35l-1.93.3q-2.75.45-5.35,1l-.77.16q-1.33.29-2.62.59l1.5.87.44.26q1.88,1.13,3.82,2.4l1.17.77a214.9,214.9,0,0,1,31-1q2.65.1,5.25.25Z"/><path class="cls-4" d="M12.87,51.6l-.4-.18-.55-.26-.66-.32a24.61,24.61,0,0,1-7.32-5.06,3.68,3.68,0,0,0-.3.65,5.23,5.23,0,0,0,2.29,2.81,41.61,41.61,0,0,0,7.56,4l.26.11.53.21h0v-.06c0-.4,0-.81,0-1.24Z"/><path class="cls-4" d="M16.47,54.34l.38.13q.07-.55.18-1.13l-.39-.15Q16.53,53.78,16.47,54.34Z"/><path class="cls-4" d="M19.45,55.27a52.74,52.74,0,0,0,8.31,1.63l1.82.18.41-.16A64.62,64.62,0,0,1,19.72,54.3Q19.57,54.8,19.45,55.27Z"/><path class="cls-5" d="M38.41,2.4l2.76,2.88a123,123,0,0,0-13,15.79q-1.5,2.17-2.85,4.3,1.63.84,3.32,1.8,1.29-.31,2.62-.59a214.9,214.9,0,0,1,20.85-23Q54.08,1.76,56,0Z"/><path class="cls-5" d="M22,33.64,20.41,34l-.29.58q1.16-.28,2.38-.54Z"/><path class="cls-5" d="M16.44,54.64q0-.15,0-.3.06-.56.16-1.16c.72-4,3.07-9.3,6.76-15.28-1.88.31-3.66.65-5.33,1-2.27,5.22-3.56,9.8-3.76,13.31,0,.43,0,.84,0,1.24v.06h0c0,.11,0,.22,0,.32V54a10.52,10.52,0,0,0,.15,1.23,5,5,0,0,0,2.2,3.62l.62.39a6.69,6.69,0,0,1-.88-3.47Q16.39,55.24,16.44,54.64Z"/><path class="cls-5" d="M30,56.92l-.41.16-.57.21-.69.25a24.61,24.61,0,0,1-8.72,1.75,3.68,3.68,0,0,0,.26.67,5.23,5.23,0,0,0,3.61.3,41.61,41.61,0,0,0,8.13-2.67l.25-.11.53-.24.07,0a54.36,54.36,0,0,0,9.3-5.46l-.44-.48A73.9,73.9,0,0,1,30,56.92Z"/><path class="cls-6" d="M87.21,18.23a5.61,5.61,0,0,1-3.9,1.33H76V2H83a5.65,5.65,0,0,1,4,1.33,4.69,4.69,0,0,1,1.43,3.6,3.83,3.83,0,0,1-.68,2.28,4.06,4.06,0,0,1-1.49,1.35A4.59,4.59,0,0,1,88,12a4.11,4.11,0,0,1,.72,2.53A4.76,4.76,0,0,1,87.21,18.23ZM84.42,5.6A2.36,2.36,0,0,0,82.74,5H79.38v4h3.36a2.36,2.36,0,0,0,1.68-.56A1.92,1.92,0,0,0,85,7.07,1.92,1.92,0,0,0,84.42,5.6Zm.25,7.18a2.28,2.28,0,0,0-1.7-.6H79.38V16.5H83a2.25,2.25,0,0,0,1.7-.62,2.16,2.16,0,0,0,.59-1.56A2.11,2.11,0,0,0,84.67,12.79Z"/><path class="cls-6" d="M101.53,19.57l-3.43-7H95.63v7H92.2V2h6.89a6.5,6.5,0,0,1,2.38.42,5.21,5.21,0,0,1,1.81,1.16,5,5,0,0,1,1.12,1.72,5.66,5.66,0,0,1,.38,2.09,4.67,4.67,0,0,1-.91,2.94,5,5,0,0,1-2.3,1.68l3.93,7.58Zm-.86-13.88A2.54,2.54,0,0,0,98.86,5H95.63V9.69h3.23a2.54,2.54,0,0,0,1.8-.64,2.19,2.19,0,0,0,.69-1.68A2.19,2.19,0,0,0,100.66,5.69Z"/><path class="cls-6" d="M118.34,19.57l-1-3.11h-6.25L110,19.57h-3.58L112.81,2h2.69l6.42,17.58Zm-4.1-12.39L112,13.57h4.37Z"/><path class="cls-6" d="M136.59,19.57V9.32L133.23,16h-2.32l-3.38-6.67V19.57h-3.43V2h3.38l4.59,9.51L136.64,2H140V19.57Z"/><path class="cls-6" d="M153.5,19.57V12.21h-6v7.36h-3.43V2h3.43V9.17h6V2h3.43V19.57Z"/><path class="cls-6" d="M171,19.57l-1-3.11h-6.25l-1.06,3.11H159.1L165.5,2h2.69l6.42,17.58Zm-4.1-12.39-2.22,6.39h4.37Z"/><path class="cls-6" d="M176.78,19.57V2h3.43V16.5h8v3.06Z"/><path class="cls-6" d="M191,19.57V2h3.43V16.5h8v3.06Z"/><path class="cls-6" d="M81.95,27.08V40.41H78.8V27.08H74.58V24.27H86.16v2.81Z"/><path class="cls-6" d="M97.3,40.41,94.14,34H91.88v6.44H88.73V24.27h6.32a6,6,0,0,1,2.19.39,4.78,4.78,0,0,1,1.67,1.07,4.57,4.57,0,0,1,1,1.58,5.2,5.2,0,0,1,.35,1.92,4.29,4.29,0,0,1-.84,2.7,4.54,4.54,0,0,1-2.11,1.54l3.6,7ZM96.5,27.67a2.34,2.34,0,0,0-1.65-.59h-3v4.26h3a2.33,2.33,0,0,0,1.65-.59,2.19,2.19,0,0,0,0-3.08Z"/><path class="cls-6" d="M112.73,40.41l-1-2.86H106l-1,2.86h-3.29l5.87-16.14h2.47L116,40.41ZM109,29l-2,5.87h4Z"/><path class="cls-6" d="M127.56,40.41l-6.39-9.91v9.91H118V24.27h2.81l6.39,9.88V24.27h3.15V40.41Z"/><path class="cls-6" d="M142.88,39.24a6.81,6.81,0,0,1-4.31,1.3,10.21,10.21,0,0,1-3.32-.49,6.7,6.7,0,0,1-2.57-1.64l2-2a4.2,4.2,0,0,0,1.71,1,7.11,7.11,0,0,0,2.19.32q2.86,0,2.86-2a1.85,1.85,0,0,0-.43-1.3,2.51,2.51,0,0,0-1.5-.62l-.91-.14-1-.14a5.45,5.45,0,0,1-3.13-1.34A4.29,4.29,0,0,1,133.32,29a4.52,4.52,0,0,1,1.52-3.55,6,6,0,0,1,4.1-1.35,8.83,8.83,0,0,1,2.95.44A6.18,6.18,0,0,1,144.15,26l-2,2a3.48,3.48,0,0,0-1.51-.88,6.82,6.82,0,0,0-1.8-.23,2.68,2.68,0,0,0-1.85.58,1.88,1.88,0,0,0-.65,1.46,1.6,1.6,0,0,0,.5,1.14,2.47,2.47,0,0,0,1.47.65l1,.14.93.14a8.16,8.16,0,0,1,1.82.45,3.89,3.89,0,0,1,1.26.79,4.49,4.49,0,0,1,1.25,3.42A4.3,4.3,0,0,1,142.88,39.24Z"/><path class="cls-6" d="M158.75,31.25a4.71,4.71,0,0,1-1.05,1.6A4.93,4.93,0,0,1,156,33.94a6,6,0,0,1-2.22.4h-3.11v6.08h-3.15V24.27h6.26a6.12,6.12,0,0,1,2.22.39,4.73,4.73,0,0,1,1.69,1.09,4.84,4.84,0,0,1,1.05,1.61,5.42,5.42,0,0,1,0,3.9Zm-3.42-3.56a2.35,2.35,0,0,0-1.7-.61h-2.95V31.5h2.95a2.37,2.37,0,0,0,1.7-.6,2.1,2.1,0,0,0,.63-1.6A2.14,2.14,0,0,0,155.33,27.69Z"/><path class="cls-6" d="M172.88,36.34a4.66,4.66,0,0,1-1.35,2.44,6,6,0,0,1-1.95,1.33,6.22,6.22,0,0,1-2.4.44,6.3,6.3,0,0,1-2.41-.44,6,6,0,0,1-2-1.33,4.75,4.75,0,0,1-1.31-2.43,22,22,0,0,1-.27-4,22.22,22.22,0,0,1,.27-4,4.63,4.63,0,0,1,1.31-2.41,6,6,0,0,1,2-1.33,6.3,6.3,0,0,1,2.41-.44,6.22,6.22,0,0,1,2.4.44,6,6,0,0,1,1.95,1.33,4.55,4.55,0,0,1,1.35,2.41,23,23,0,0,1,.26,4A22.78,22.78,0,0,1,172.88,36.34Zm-2.92-6a8.64,8.64,0,0,0-.12-1.21,3.45,3.45,0,0,0-.24-.78,2.32,2.32,0,0,0-.4-.59,2.54,2.54,0,0,0-2-.86,3,3,0,0,0-1.17.23,2.27,2.27,0,0,0-.87.63,2.24,2.24,0,0,0-.37.57,3.4,3.4,0,0,0-.24.79,8.84,8.84,0,0,0-.12,1.21q0,.74,0,2t0,1.95a9.1,9.1,0,0,0,.12,1.21,3.6,3.6,0,0,0,.23.79,2.14,2.14,0,0,0,.39.58,2.27,2.27,0,0,0,.87.63,3,3,0,0,0,1.17.23,2.54,2.54,0,0,0,2-.86,2.31,2.31,0,0,0,.4-.59,3.44,3.44,0,0,0,.24-.78,8.7,8.7,0,0,0,.12-1.22q0-.76,0-1.94T170,30.39Z"/><path class="cls-6" d="M184.93,40.41,181.78,34h-2.27v6.44h-3.15V24.27h6.32a6,6,0,0,1,2.19.39,4.78,4.78,0,0,1,1.67,1.07,4.57,4.57,0,0,1,1,1.58,5.2,5.2,0,0,1,.35,1.92,4.29,4.29,0,0,1-.84,2.7A4.54,4.54,0,0,1,185,33.45l3.6,7Zm-.79-12.74a2.34,2.34,0,0,0-1.65-.59h-3v4.26h3a2.33,2.33,0,0,0,1.65-.59,2.19,2.19,0,0,0,0-3.08Z"/><path class="cls-6" d="M197.36,27.08V40.41H194.2V27.08H190V24.27h11.58v2.81Z"/><path class="cls-6" d="M84.53,60.09a6.81,6.81,0,0,1-4.31,1.3,10.21,10.21,0,0,1-3.32-.49,6.7,6.7,0,0,1-2.57-1.64l2-2a4.2,4.2,0,0,0,1.71,1,7.11,7.11,0,0,0,2.19.32q2.86,0,2.86-2a1.85,1.85,0,0,0-.43-1.3,2.51,2.51,0,0,0-1.5-.62l-.91-.14-1-.14a5.45,5.45,0,0,1-3.13-1.34A4.29,4.29,0,0,1,75,49.88a4.52,4.52,0,0,1,1.52-3.55A6,6,0,0,1,80.59,45a8.83,8.83,0,0,1,2.95.44,6.18,6.18,0,0,1,2.27,1.44l-2,2A3.48,3.48,0,0,0,82.3,48a6.82,6.82,0,0,0-1.8-.23,2.68,2.68,0,0,0-1.85.58A1.88,1.88,0,0,0,78,49.76a1.6,1.6,0,0,0,.5,1.14,2.47,2.47,0,0,0,1.47.65l1,.14.93.14a8.16,8.16,0,0,1,1.82.45,3.89,3.89,0,0,1,1.26.79,4.49,4.49,0,0,1,1.25,3.42A4.3,4.3,0,0,1,84.53,60.09Z"/><path class="cls-6" d="M89.18,61.26V45.12H99.81v2.81H92.33v3.79H98.7v2.81H92.33v3.92h7.48v2.81Z"/><path class="cls-6" d="M111.46,61.26l-3.15-6.44H106v6.44h-3.15V45.12h6.32a6,6,0,0,1,2.19.39,4.78,4.78,0,0,1,1.67,1.07,4.57,4.57,0,0,1,1,1.58,5.2,5.2,0,0,1,.35,1.92,4.29,4.29,0,0,1-.84,2.7,4.54,4.54,0,0,1-2.11,1.54l3.6,7Zm-.79-12.74a2.34,2.34,0,0,0-1.65-.59h-3v4.26h3a2.33,2.33,0,0,0,1.65-.59,2.19,2.19,0,0,0,0-3.08Z"/><path class="cls-6" d="M123.59,61.26h-2.36l-5.33-16.14h3.26l3.24,10.52,3.24-10.52h3.29Z"/><path class="cls-6" d="M130.89,61.26V45.12H134V61.26Z"/><path class="cls-6" d="M147.12,60.08a6,6,0,0,1-3.92,1.31,5.92,5.92,0,0,1-4.35-1.77,4.75,4.75,0,0,1-1.31-2.43,22,22,0,0,1-.27-4,22.22,22.22,0,0,1,.27-4,4.63,4.63,0,0,1,1.31-2.41A5.92,5.92,0,0,1,143.2,45a5.68,5.68,0,0,1,5.94,5.1h-3.2a3.25,3.25,0,0,0-.92-1.67,2.88,2.88,0,0,0-3.82.22,2.3,2.3,0,0,0-.4.59,3.1,3.1,0,0,0-.23.79,12.09,12.09,0,0,0-.12,1.22q0,.75,0,1.95t0,1.95a12.09,12.09,0,0,0,.12,1.22,3.1,3.1,0,0,0,.23.79,2.3,2.3,0,0,0,.4.59A2.88,2.88,0,0,0,145,58a3.24,3.24,0,0,0,.92-1.67h3.2A5.92,5.92,0,0,1,147.12,60.08Z"/><path class="cls-6" d="M151.86,61.26V45.12h10.63v2.81H155v3.79h6.37v2.81H155v3.92h7.48v2.81Z"/><path class="cls-6" d="M174.32,60.09a6.81,6.81,0,0,1-4.31,1.3,10.21,10.21,0,0,1-3.32-.49,6.7,6.7,0,0,1-2.57-1.64l2-2a4.2,4.2,0,0,0,1.71,1,7.11,7.11,0,0,0,2.19.32q2.86,0,2.86-2a1.85,1.85,0,0,0-.43-1.3,2.51,2.51,0,0,0-1.5-.62l-.91-.14-1-.14a5.45,5.45,0,0,1-3.13-1.34,4.29,4.29,0,0,1-1.16-3.17,4.52,4.52,0,0,1,1.52-3.55,6,6,0,0,1,4.1-1.35,8.83,8.83,0,0,1,2.95.44,6.18,6.18,0,0,1,2.27,1.44l-2,2a3.48,3.48,0,0,0-1.51-.88,6.82,6.82,0,0,0-1.8-.23,2.68,2.68,0,0,0-1.85.58,1.88,1.88,0,0,0-.65,1.46,1.6,1.6,0,0,0,.5,1.14,2.47,2.47,0,0,0,1.47.65l1,.14.93.14a8.16,8.16,0,0,1,1.82.45,3.89,3.89,0,0,1,1.26.79A4.49,4.49,0,0,1,176,56.5,4.3,4.3,0,0,1,174.32,60.09Z"/></g></g></svg>