<svg xmlns="http://www.w3.org/2000/svg" xmlns:xlink="http://www.w3.org/1999/xlink" viewBox="0 0 758.89 668.62"><defs><style>.cls-1{fill:none;}.cls-2{clip-path:url(#clip-path);}.cls-3{opacity:0.1;}.cls-4{fill:#a4035a;}.cls-5{fill:#b3b3b3;}.cls-6{fill:#97bf02;}.cls-7{fill:#00a5ea;}</style><clipPath id="clip-path"><rect class="cls-1" x="3.5" width="759.42" height="668.62" transform="translate(766.41 668.62) rotate(-180)"/></clipPath></defs><title>pale bckgrndArtboard 1 copy 3</title><g id="Layer_5" data-name="Layer 5"><g class="cls-2"><g class="cls-3"><path class="cls-1" d="M519.27,88.91C605.66,229,660.65,352,677.47,446.68q-4.6,1.78-9.21,3.54c-18.34-96.47-75.37-221.54-164.14-363.74C509.21,87.27,514.24,88.09,519.27,88.91Z"/><path class="cls-1" d="M-4.1,331.76q-4.86-3.69-9.56-7.35C87.19,226.35,186.6,137.81,281.85,60.58q8.55.68,17,1.4C201.38,140.59,99.39,231.16-4.1,331.76Z"/><path class="cls-1" d="M596,11c-2.27-4.48-4.54-9-6.86-13.49,143.46,34,257,76.87,330.62,126.38q-1.91,4.54-3.85,9.08C843.34,85.4,733.69,44.06,596,11Z"/><path class="cls-1" d="M364.84,534.15c-89.3-34.81-183.51-82.31-264.82-132,43.46-47.21,89.44-94.6,137.58-141.54,56.5-55.09,112.72-106.39,167.75-153.46C506.47,249,576,376.65,605.33,472.8,521.34,501.17,436.57,522.91,364.84,534.15Z"/><path class="cls-1" d="M888.45,193.93c-37.93,80.12-81.18,156.2-122.92,215.61Q749,417.13,732,424.45c-4.57-82.1-34.75-189.36-88-311.55C744.75,135.52,828.1,163.12,888.45,193.93Z"/><path class="cls-1" d="M307.39,541.08c-4.89.39-9.7.72-14.38,1A1272.77,1272.77,0,0,1,85.36,418.14c1.45-1.59,2.92-3.19,4.38-4.78A1272.45,1272.45,0,0,0,307.39,541.08Z"/><path class="cls-4" d="M535.32-124.61q-4.89,3.14-9.81,6.33-48,31.16-98.67,67.66-4.74,3.42-9.51,6.89l-8,5.84q-6.61,4.84-13.26,9.76Q367.22-6.75,337.69,16.21,310,37.72,281.85,60.58C186.6,137.81,87.19,226.35-13.65,324.41l-2.49,2.43-4.39,4.28-3.1,3C-107,415.68-191.32,503.65-275,597.06q-41.47,46.31-81.11,92.57l41.83-413.45,69.52,62.26C-152.88,242.19-43,142.92,77.62,50.2Q95.69,36.3,114,22.59q52.32-39,103.78-73.93,7.6-5.18,15.18-10.27,13.72-9.21,27.34-18.13,45.37-29.7,89.53-56.1c3.4-2,6.81-4.08,10.2-6.09q17.68-10.47,35.12-20.39,39.63-22.54,77.8-42.18c255.88-131.84,457.49-165,516-74.18l9.63,14.28C912-314,744-258.44,535.32-124.61"/><path class="cls-5" d="M293.46,542.26q6.08,2.87,12.14,5.65l3.82,1.76c72.48,33,143.41,56.74,206.83,69.82,37.83,7.8,64.39,3.57,84.57-7.09a67.46,67.46,0,0,1-19.65,23.81l-7.67,5.11c-77.55,43.69-297.1-47.11-496.4-214,2.75-3,5.48-6.09,8.26-9.14A1272.73,1272.73,0,0,0,293,542Z"/><path class="cls-5" d="M-266.06,605c83.47-93.21,167.59-181,250.81-262.4l3.62-3.53,4.39-4.28,3.14-3.06C99.39,231.16,201.38,140.59,298.88,62q-8.48-.72-17-1.4Q310,37.73,337.69,16.21q29.52-23,58.39-44.34,8.14,1.28,16.19,2.59,5.91-4.35,11.79-8.63l1.46-1.06,8-5.83q50.11-36.18,97.77-67.24,9.28-6,18.46-11.89c206.1-131.25,371.91-185.36,457.7-136.24l43.15,64c-49-66.17-200.15-19.15-394.2,108.5Q617.23-58.12,575.82-28q-11.57,8.42-23.3,17.18-6.12,4.57-12.27,9.2Q568.85,4.45,596,11C733.69,44.06,843.34,85.4,915.92,133q11.62,7.62,22,15.45,2.83,2.14,5.56,4.3,5.32,4.2,10.26,8.46-4.94-4.26-10.26-8.46c1.34-2.8,2.66-5.59,4-8.39q10.86,8.88,20,18-2.1,3.7-4.25,7.4c25.48,24.06,42.07,49.42,48.76,75.86l-16.06,75.49c5.89-35.25-17-69.54-63.24-101.22A1411.39,1411.39,0,0,1,803.19,391.5c-5.09,2.55-10.26,5.07-15.47,7.59q10.26-12.78,20.8-26.44A1233.8,1233.8,0,0,0,914.9,208.5c-1.9-1.14-3.86-2.27-5.82-3.4q-9.81-5.65-20.62-11.17c-60.36-30.81-143.7-58.4-244.41-81-39.09-8.78-80.79-16.81-124.77-24-5-.82-10.06-1.64-15.15-2.44,88.77,142.21,145.8,267.27,164.14,363.74q2.59,13.65,4.14,26.52.43,3.52.77,7c2.95-1,5.87-2,8.8-3q1.15,14,1,26.93-4.12,1.05-8.27,2.09c.39,35-6.33,64.59-20.69,87.77l-65.46,40.9c29.45-20.26,38.23-60.52,28.88-115.8A1411.42,1411.42,0,0,1,404,548.71c-5.37-1.89-10.78-3.86-16.2-5.86,10.88-1,22-2.12,33.47-3.4a1233.78,1233.78,0,0,0,192-37.51c-.5-2.16-1-4.35-1.6-6.55q-2.75-11-6.29-22.59C576,376.65,506.47,249,405.35,107.13c-55,47.06-111.25,98.37-167.75,153.46C189.46,307.52,143.48,354.91,100,402.12q-5.17,5.62-10.28,11.24c-1.45,1.59-2.93,3.19-4.38,4.78-2.77,3-5.51,6.09-8.26,9.14Q26,483.91-20,539.68l79.54,71.22L-347.2,698l0-.4Q-307.53,651.38-266.06,605Z"/><path class="cls-5" d="M732.05,464.14c0-.53.05-1.07.08-1.61l2.14-.82,3.92-1.53C812.3,431,878.63,396.44,932.1,359.9c31.89-21.79,47.3-43.84,53.65-65.76a67.47,67.47,0,0,1,3.48,30.68l-1.66,9.07C972.62,391.25,871,452.48,728.45,495.08a246.32,246.32,0,0,0,3.5-28.82C732,465.56,732,464.84,732.05,464.14Z"/><path class="cls-5" d="M114,22.59Q95.66,36.28,77.62,50.2c-123.13-2.79-242,.64-352.07,9.3l4,106.69L-615.64-65.89l.32-.25q60.79-3.61,122.93-6C-236-81.75,5.9-73.66,217.81-51.34Q166.42-16.35,114,22.59Z"/><path class="cls-6" d="M947.41,144.32q-2.7-2.21-5.51-4.41-10.38-8.12-22.13-16C846.16,74.37,732.62,31.49,589.16-2.5q-18-4.27-36.64-8.34,11.72-8.74,23.3-17.18,41.35-30.08,80.63-55.9c124.85,46.61,223,99.41,285.21,153.16q12.06,10.42,22.27,20.87c1.79,1.83,3.52,3.65,5.22,5.48A251.35,251.35,0,0,1,990,120.84c23.31,32.65,32.37,65,25.1,96l-3.58,16.85c-6.27-24.78-21.24-48.6-44.07-71.31Q958.28,153.21,947.41,144.32Z"/><path class="cls-6" d="M765.53,409.54q4.66-2.14,9.26-4.31,6.51-3.06,12.92-6.15c5.21-2.51,10.38-5,15.47-7.59,74.37-37.21,136.26-78,171.27-118.39a86.2,86.2,0,0,1,7.08,15.21c-6.35,21.92-21.76,44-53.65,65.76-49.37,33.75-109.73,65.79-177,93.49l-6,2.46c-4.1,1.66-8.2,3.32-12.35,4.95,0,0,0-.09,0-.13,0-.48,0-1,0-1.44.21-9.27.07-18.9-.49-28.95Q749,417.13,765.53,409.54Z"/><path class="cls-6" d="M681.31,473.73q-4.44,1.52-8.91,3-1.55-12.87-4.14-26.52,4.62-1.76,9.21-3.54Q680,460.62,681.31,473.73Z"/><path class="cls-6" d="M611.62,495.39A1234.49,1234.49,0,0,1,417,533.62c-14.72,1.65-28.9,3-42.66,4.21q-4.76-1.81-9.53-3.67c71.73-11.25,156.49-33,240.48-61.36Q608.86,484.41,611.62,495.39Z"/><path class="cls-7" d="M552.52-10.84q18.63,4.08,36.64,8.34C591.48,2,593.76,6.5,596,11Q568.85,4.46,540.25-1.64,546.41-6.29,552.52-10.84Z"/><path class="cls-7" d="M682,480.75q-.29-3.48-.66-7-1.36-13.11-3.84-27.05C660.65,352,605.66,229,519.27,88.91c44,7.18,85.68,15.21,124.77,24,53.2,122.19,83.38,229.45,88,311.56.56,10,.7,19.67.49,28.95,0,.48,0,1,0,1.44,0,0,0,.09,0,.13-.07,2.56-.19,5.07-.32,7.57,0,.53-.05,1.08-.08,1.61,0,.7-.06,1.42-.11,2.12a246.32,246.32,0,0,1-3.5,28.82c-7.3,39.45-24.3,68.46-51.59,84.71l-14.61,9.13c13.46-21.72,20.2-49,20.68-81.23Q683.12,494.74,682,480.75Z"/><path class="cls-7" d="M364.84,534.15q4.78,1.86,9.53,3.67,6.72,2.56,13.4,5c5.42,2,10.83,4,16.2,5.86,78.43,27.65,150.76,43.83,204.13,41a86.2,86.2,0,0,1-6,15.66c-20.18,10.65-46.75,14.89-84.57,7.09C458.95,600.34,394,579.18,327.29,550c-2-.87-4-1.75-6-2.64-4.1-1.82-8.2-3.65-12.31-5.53l-1.62-.75A1272.5,1272.5,0,0,1,89.74,413.36q5.13-5.62,10.28-11.24C181.34,451.84,275.55,499.35,364.84,534.15Z"/></g></g></g></svg>